<?xml version="1.0" encoding="utf-8"?>
<!-- Generator: Adobe Illustrator 24.1.2, SVG Export Plug-In . SVG Version: 6.00 Build 0)  -->
<svg version="1.1"
	 id="Layer_1" shape-rendering="geometricPrecision" image-rendering="optimizeQuality" text-rendering="geometricPrecision"
	 xmlns="http://www.w3.org/2000/svg" xmlns:xlink="http://www.w3.org/1999/xlink" x="0px" y="0px" viewBox="0 0 15 25.3"
	 style="enable-background:new 0 0 15 25.3;" xml:space="preserve">
<style type="text/css">
	.st0{fill:#252422;}
	.st1{fill:#992A7B;}
	.st2{fill:#C0484B;}
	.st3{fill:#EFAE09;}
	.st4{fill:#D77923;}
</style>
<g>
	<g>
		<path class="st0" d="M8.1,23.5c-2.7,0-5.8-1.1-7.9-2.9L0,20.4l1.7-2.5L2,18.1c2,1.6,4.2,2.4,6.3,2.4c2.1,0,3.6-1.1,3.6-2.8
			c0-1.8-1.9-2.4-4.4-3.2C4.7,13.8,1,12.7,1,8.8C1,5.4,3.7,3,7.6,3c2.3,0,4.9,0.8,6.9,2.2l0.2,0.2L13.2,8l-0.3-0.2
			C11.2,6.6,9.3,6,7.6,6c-2,0-3.3,1-3.3,2.5v0.1c0,1.6,2.2,2.3,4.5,3l0.1,0c2.5,0.8,6.2,1.9,6.2,5.8C15,21.1,12.3,23.5,8.1,23.5z
			 M0.8,20.3c2,1.6,4.8,2.6,7.3,2.6c3.8,0,6.3-2.2,6.3-5.5c0-3.2-2.7-4.3-5.8-5.3l-0.1,0c-2.5-0.8-4.9-1.5-4.9-3.6V8.5
			c0-1.8,1.6-3.1,3.9-3.1c1.7,0,3.6,0.6,5.4,1.7l1-1.6c-1.9-1.2-4.2-1.9-6.3-1.9c-3.6,0-6,2.1-6,5.2c0,3.2,2.7,4.3,6,5.2
			c2.2,0.6,4.9,1.4,4.9,3.7c0,2-1.7,3.4-4.2,3.4c-2.1,0-4.3-0.8-6.4-2.3L0.8,20.3z"/>
	</g>
	<polygon class="st1" points="6.9,25.3 9.2,25.3 9.2,0 6.9,0 	"/>
	<polygon class="st2" points="9.2,19.6 6.9,19.6 6.9,13.2 9.2,13.2 	"/>
	<polygon class="st3" points="6.9,6.9 9.2,6.9 9.2,0 6.9,0 	"/>
	<polygon class="st4" points="9.2,13.2 6.9,13.2 6.9,6.9 9.2,6.9 	"/>
</g>
</svg>
